<?xml version="1.0" encoding="utf-8"?>
<!-- Generator: Adobe Illustrator 23.0.5, SVG Export Plug-In . SVG Version: 6.00 Build 0)  -->
<svg version="1.1" id="fda871d6-4a4f-49fc-88be-f761f3bd5c82"
	 xmlns="http://www.w3.org/2000/svg" xmlns:xlink="http://www.w3.org/1999/xlink" x="0px" y="0px" viewBox="0 0 629.6 690"
	 style="enable-background:new 0 0 629.6 690;" xml:space="preserve">
<style type="text/css">
	.st0{fill:#3F3D56;}
	.st1{fill:#90CAF9;}
	.st2{fill:#F2F2F2;}
	.st3{opacity:0.1;enable-background:new    ;}
	.st4{opacity:0.3;fill:#90CAF9;enable-background:new    ;}
	.st5{fill:#A0616A;}
	.st6{fill:#2F2E41;}
	.st7{fill:#575A89;}
	.st8{fill:#A8A8A8;}
	.st9{opacity:0.2;enable-background:new    ;}
</style>
<title>online page</title>
<ellipse class="st0" cx="167" cy="666" rx="144" ry="24"/>
<ellipse class="st0" cx="533.4" cy="658" rx="70.9" ry="11.8"/>
<rect y="160" class="st0" width="629.6" height="444"/>
<rect y="124" class="st0" width="629.6" height="41"/>
<circle class="st1" cx="20" cy="142" r="7"/>
<path class="st2" d="M120,576.3c0,38.9-23.1,52.5-51.7,52.5s-51.7-13.6-51.7-52.5s51.7-88.4,51.7-88.4S120,537.4,120,576.3z"/>
<polygon class="st0" points="66.4,622.9 67,590.3 89,550 67.1,585.2 67.3,570.5 82.5,541.4 67.4,566.7 67.4,566.7 67.8,540.3 
	84,517.1 67.8,536.2 68.1,487.9 66.4,551.8 66.6,549.2 50,523.9 66.3,554.3 64.8,583.7 64.7,582.9 45.7,556.3 64.7,585.7 
	64.5,589.3 64.4,589.4 64.5,589.7 60.5,664.3 65.8,664.3 66.4,625.8 85.3,596.5 "/>
<circle class="st1" cx="40" cy="142" r="7"/>
<circle class="st1" cx="60" cy="142" r="7"/>
<rect y="160" class="st3" width="629.6" height="5"/>
<rect x="47.5" y="230.5" class="st4" width="162" height="173"/>
<rect x="58.5" y="218.5" class="st1" width="162" height="173"/>
<rect x="277.5" y="218.5" class="st4" width="309" height="12"/>
<rect x="277.5" y="253.5" class="st4" width="309" height="12"/>
<rect x="277.5" y="288.5" class="st4" width="309" height="12"/>
<rect x="277.5" y="323.5" class="st4" width="309" height="12"/>
<rect x="277.5" y="358.5" class="st4" width="309" height="12"/>
<rect x="277.5" y="393.5" class="st4" width="309" height="12"/>
<rect x="277.5" y="428.5" class="st4" width="309" height="12"/>
<rect x="277.5" y="463.5" class="st4" width="309" height="12"/>
<rect x="277.5" y="498.5" class="st4" width="309" height="12"/>
<rect x="277.5" y="533.5" class="st4" width="309" height="12"/>
<circle class="st5" cx="193" cy="291.4" r="21.5"/>
<path class="st5" d="M179.1,301.5c0,0,0,22.8-3.8,25.3s30.4,5.1,30.4,5.1v-29.1L179.1,301.5z"/>
<path class="st5" d="M137.3,428c0,0,24,27.8,29.1,27.8s10.1-19,10.1-19l-24-17.7L137.3,428z"/>
<path class="st5" d="M257.5,302.8l3.8-26.6c0,0,2.5-36.7,10.1-27.8c7.6,8.9,2.5,29.1,2.5,29.1s3.8,29.1,0,32.9
	S257.5,302.8,257.5,302.8z"/>
<path class="st6" d="M236,445.7l-68.3-6.3c0,0-8.9,41.7-6.3,58.2s3.8,63.2,3.8,63.2s2.5,84.7,6.3,89.8s16.4,3.8,20.2,6.3
	s10.1-5.1,10.1-6.3s-7.6-1.3-3.8-8.9s-10.1-29.1-6.3-39.2c3.8-10.1,10.1-24,6.3-29.1s2.5-69.6,2.5-69.6s31.6,45.5,31.6,65.8
	s-2.5,67-3.8,72.1s-2.5,6.3,0,10.1s5.1,7.6,3.8,8.9s22.8,0,22.8-7.6s-1.3-7.6,1.3-13.9S260,557,260,557L236,445.7z"/>
<path class="st7" d="M175.3,317.9l-3.8,7.6c0,0-40.5,12.6-41.7,39.2l34.1,56.9c0,0,2.5,3.8,1.3,6.3s-2.5,1.3-1.3,5.1
	s1.3,2.5,1.3,5.1s-3.8,1.3,0,2.5s-1.3,0,12.6,3.8c13.9,3.8,55.6,2.5,55.6,2.5l-7.6-73.4l7.6-15.2l-10.1-30.4c0,0-6.3-1.3-10.1,1.3
	s-8.9-2.5-8.9-2.5S198,317.9,175.3,317.9z"/>
<path class="st7" d="M217,329.3l6.3-1.3c0,0,25.3-7.6,26.6-13.9s7.6-13.9,7.6-13.9s20.2-5.1,19,11.4s-6.3,21.5-8.9,24
	s-30.4,22.8-35.4,22.8S217,329.3,217,329.3z"/>
<path class="st7" d="M132.3,359.7l-2.5,5.1l-1.3,45.5c0,0-7.6,5.1-3.8,7.6c3.8,2.5,12.6,13.9,15.2,13.9c2.5,0,16.4-6.3,16.4-8.9
	s-2.5-25.3-2.5-25.3L132.3,359.7z"/>
<path class="st6" d="M179.1,650.6c0,0,0,12.6-1.3,15.2S174,681,181.6,681c4.3,0.1,8.7-0.8,12.6-2.5c0,0,0-7.6,3.8-8.9
	s12.6-11.4,8.9-13.9s-11.4-5.1-11.4-5.1H179.1z"/>
<path class="st6" d="M233.5,656.9c0,0-7.6,17.7,0,19s17.7,0,19-2.5s3.8-5.1,6.3-3.8s24-13.9,16.4-16.4c-4.5-1.5-9.4-1.5-13.9,0
	l-7.6-3.8L233.5,656.9z"/>
<path class="st6" d="M195.7,315.1c0.4,0,0.7-0.1,1-0.3c0.5-0.4,0.9-1,1-1.7l2.6-9.2c1-3.5,2.6-7.5,6.1-8.3c0.7,0,1.5-0.2,2.1-0.6
	c0.8-0.7,1.2-1.8,1.2-2.9l1.1-11.8c0.3-3.2,0.6-6.5-0.5-9.5c-1.6-4.4-6.2-7.4-10.8-8.2c-4.7-0.8-9.5,0.1-14,1.5
	c-6.9,2.1-14,5.6-17,12.1c-1.7,3.8-1.8,8.1-1.6,12.3c0.2,4.3,0.8,8.6,2.8,12.4c1.1,2,2.4,3.8,3.8,5.6c2.1,2.8,4.8,8.2,8.3,9.2
	C185.7,317,191.7,315.6,195.7,315.1z"/>
<path class="st6" d="M476.8,583.6c0,38,23.9,68.8,53.3,68.8"/>
<path class="st1" d="M530.1,652.4c0-38.5,26.6-69.6,59.5-69.6"/>
<path class="st1" d="M496.1,587c0,36.1,15.2,65.4,34,65.4"/>
<path class="st6" d="M530.1,652.4c0-49.1,30.8-88.9,68.8-88.9"/>
<path class="st8" d="M518.9,652.9c0,0,7.6-0.2,9.8-1.9s11.6-3.6,12.2-1s11.4,12.9,2.8,13s-19.8-1.3-22.1-2.7
	S518.9,652.9,518.9,652.9z"/>
<path class="st9" d="M543.9,662.2c-8.5,0.1-19.8-1.3-22.1-2.7c-1.7-1.1-2.4-4.8-2.7-6.6c-0.2,0-0.3,0-0.3,0s0.5,6.1,2.8,7.5
	s13.6,2.8,22.1,2.7c2.5,0,3.3-0.9,3.3-2.2C546.7,661.7,545.7,662.1,543.9,662.2z"/>
</svg>
